<svg xmlns="http://www.w3.org/2000/svg" width="248" height="172" viewBox="0 0 248 172"><script xmlns="" id="eppiocemhmnlbhjplcgkofciiegomcon" /><script xmlns="" /><script xmlns="" />
    <rect width="248" height="172" rx="3" fill="#fff" />
    <path d="M3,0H245a3,3,0,0,1,3,3V23a0,0,0,0,1,0,0H0a0,0,0,0,1,0,0V3A3,3,0,0,1,3,0Z" fill="#5c6edb" />
    <g transform="translate(10 7)">
        <rect width="16" height="3" rx="1.5" transform="translate(63 3)" fill="rgba(255,255,255,0.6)" />
        <rect width="16" height="3" rx="1.5" transform="translate(39 3)" fill="rgba(255,255,255,0.6)" />
        <rect width="16" height="3" rx="1.5" transform="translate(15 3)" fill="rgba(255,255,255,0.6)" />
        <rect width="7" height="7" rx="2" transform="translate(0 1)" fill="rgba(255,255,255,0.8)" />
    </g>
    <g transform="translate(-52)">
        <path d="M0,0H248a0,0,0,0,1,0,0V144a3,3,0,0,1-3,3H3a3,3,0,0,1-3-3V0A0,0,0,0,1,0,0Z" transform="translate(52 25)" fill="#ebedf2" />
        <path d="M594.667,1167.414H590a1,1,0,0,1-1-1v-4.667a1,1,0,0,1,2,0V1164l3.737-3.737a1,1,0,1,1,1.414,1.414l-3.737,3.737h2.253a1,1,0,0,1,0,2Zm3.889-8.556a1,1,0,0,1-.707-1.707l3.737-3.737h-2.253a1,1,0,0,1,0-2H604a1,1,0,0,1,1,1v4.667a1,1,0,0,1-2,0v-2.253l-3.737,3.737A1,1,0,0,1,598.556,1158.858Z" transform="translate(-420.999 -1060.415)" fill="#9a9da2" opacity="0.6" />
    </g>
    <g fill="none" stroke="rgba(36,37,44,0.15)" stroke-width="1">
        <rect width="248" height="172" rx="3" stroke="none" />
        <rect x="0.5" y="0.5" width="247" height="171" rx="2.5" fill="none" />
    </g>
</svg>